<svg width="212" height="212" viewBox="0 0 212 212" fill="none" xmlns="http://www.w3.org/2000/svg">
<path d="M52.9146 36.6014C52.9146 36.6014 84.756 60.7639 133.163 15.584C176.153 -24.54 211.255 38.7665 211.5 69.083C211.819 108.355 168.51 139.778 189.527 165.572C210.545 191.366 147.847 233.961 114.056 197.098C72.021 151.242 60.6333 188.5 36.6735 188.5C19.4775 188.5 -15.828 145.772 8.01342 113.984C28.0754 87.2344 17.134 78.3567 11.8354 69.083C4.19241 55.7082 22.3438 19.4053 52.9146 36.6014Z" fill="#DEE9FF"/>
<path d="M194.909 20.1305C194.909 20.7249 194.883 21.3106 194.832 21.8906C194.369 27.1307 191.873 31.9815 187.878 35.4039C183.883 38.8263 178.707 40.5482 173.458 40.2008C168.209 39.8533 163.305 37.4642 159.796 33.5451C156.287 29.626 154.452 24.4886 154.684 19.2333C154.917 13.978 157.198 9.02258 161.039 5.42857C164.881 1.83456 169.977 -0.112294 175.236 0.00500927C180.495 0.122313 185.499 2.29445 189.176 6.05616C192.854 9.81787 194.911 14.87 194.909 20.1305Z" fill="#A2BDFF"/>
<path d="M177.326 21.6712C176.028 22.681 174.213 24.6921 174.762 29.167C174.153 30.904 171.989 34.222 171.989 35.8088C171.989 37.3955 169.392 37.6848 169.104 37.2508C168.815 36.8168 168.671 31.3361 167.084 30.3262C165.497 29.3164 165.786 24.7001 165.786 24.7001C165.786 24.7001 166.363 22.9688 164.487 21.8148C162.612 20.6608 161.305 17.9197 162.97 16.3328C164.632 14.7459 160.159 13.7361 159.582 12.5821C159.337 12.0921 158.397 10.9952 157.398 9.90163C159.557 6.24616 162.811 3.36309 166.7 1.66138C168.175 3.20138 169.45 5.17272 169.104 7.2443C169.161 8.25412 173.544 9.84102 171.398 12.0043C169.248 14.1683 166.331 17.1983 171.398 18.2076C176.461 19.2189 178.625 20.6609 177.326 21.6712Z" fill="#0E84E5"/>
<path d="M188.85 5.73033C187.771 8.00673 185.065 9.84171 183.53 9.84171C181.799 7.96571 178.048 10.5631 177.697 7.53353C177.492 5.76785 179.506 3.02679 181.222 1.04187C184.084 2.01293 186.691 3.6153 188.85 5.73033Z" fill="#0E84E5"/>
<path d="M194.832 21.8905C194.402 26.8719 192.128 31.5134 188.455 34.9058C187.789 34.2681 187.226 33.5209 187.425 32.9236C187.858 31.6253 189.618 28.8842 189.315 27.1531C189.033 25.5374 190.524 20.6498 194.832 21.8905Z" fill="#0E84E5"/>
<path d="M162.072 121.899C161.427 125.873 160.361 129.768 158.89 133.516C149.308 158.062 123.602 173.439 96.5491 169.02C81.6139 166.575 68.2608 158.3 59.4248 146.013C50.5888 133.726 46.9931 118.434 49.428 103.497C49.5518 102.739 49.6961 101.975 49.8468 101.232C55.9501 71.3713 84.6016 51.4184 114.951 56.3756C124.006 57.8396 132.572 61.4781 139.913 66.9791C142.326 68.7802 144.589 70.7728 146.681 72.9373C152.894 79.3279 157.523 87.0858 160.195 95.5886C162.868 104.091 163.511 113.102 162.072 121.898V121.899Z" fill="#699CFF"/>
<path d="M158.891 133.516C148.023 140.512 135.189 146.984 121.04 152.335C106.632 157.781 92.4842 161.461 79.5171 163.388C49.0457 167.931 25.1151 162.855 19.7231 148.592C14.6736 135.271 27.0934 117.227 49.8469 101.232C49.6963 101.975 49.5519 102.739 49.4282 103.497C48.9735 106.271 48.7267 109.075 48.69 111.886C35.5804 122.008 28.758 131.921 31.4474 139.032C34.0622 145.946 45.1641 148.888 60.9575 148.054C76.3975 147.241 96.3215 142.793 117.176 134.909C135.213 128.082 151.029 119.784 162.807 111.448C178.573 100.301 187.125 89.0851 184.173 81.2605C181.138 73.2279 166.657 70.5505 146.681 72.938C144.589 70.7734 142.326 68.7808 139.914 66.9797C167.876 63.7481 189.429 69.0293 194.509 82.4627C199.951 96.8306 185.109 116.667 158.891 133.516Z" fill="#0E84E5"/>
</svg>
